REM DIRINDEX 1\2\5,1\2\6,1\2\7,1\2\8,1\3\9,1\3\10,1\3\11,1\4\12,1\4\13,1\4\14,1\4\15,1\4\16
REM DIRNAME folder01,folder02,folder03,folder04,folder05,folder06,folder07,folder08,folder09,folder10,folder11,folder12,folder13,folder14,folder15,folder16
TITLE ""
FILE "1200_2_sec03_1080_1094.mp3" MP3
  TRACK 01 AUDIO
    TITLE "0:"
    INDEX 01 00:00:00
  TRACK 02 AUDIO
    TITLE "10:cjc034_02228"
    INDEX 01 00:00:11
  TRACK 03 AUDIO
    TITLE "0:"
    INDEX 01 00:01:17
  TRACK 04 AUDIO
    TITLE "9:cjc034_02229"
    INDEX 01 00:01:26
  TRACK 05 AUDIO
    TITLE "0:"
    INDEX 01 00:02:40
  TRACK 06 AUDIO
    TITLE "10:cjc034_02230"
    INDEX 01 00:03:27
  TRACK 07 AUDIO
    TITLE "0:"
    INDEX 01 00:05:14
  TRACK 08 AUDIO
    TITLE "9:cjc034_02231"
    INDEX 01 00:05:20
  TRACK 09 AUDIO
    TITLE "0:"
    INDEX 01 00:06:37
  TRACK 10 AUDIO
    TITLE "10:cjc034_02232"
    INDEX 01 00:07:19
  TRACK 11 AUDIO
    TITLE "0:"
    INDEX 01 00:09:26
  TRACK 12 AUDIO
    TITLE "9:cjc034_02233"
    INDEX 01 00:09:28
  TRACK 13 AUDIO
    TITLE "0:"
    INDEX 01 00:10:43
  TRACK 14 AUDIO
    TITLE "10:cjc034_02234"
    INDEX 01 00:11:25
  TRACK 15 AUDIO
    TITLE "0:"
    INDEX 01 00:13:22
  TRACK 16 AUDIO
    TITLE "9:cjc034_02235"
    INDEX 01 00:13:24
  TRACK 17 AUDIO
    TITLE "0:"
    INDEX 01 00:14:21
  TRACK 18 AUDIO
    TITLE "10:cjc034_02236"
    INDEX 01 00:15:09
  TRACK 19 AUDIO
    TITLE "0:"
    INDEX 01 00:16:32
  TRACK 20 AUDIO
    TITLE "9:cjc034_02237"
    INDEX 01 00:16:34
  TRACK 21 AUDIO
    TITLE "0:"
    INDEX 01 00:17:53
  TRACK 22 AUDIO
    TITLE "10:cjc034_02238"
    INDEX 01 00:18:33
  TRACK 23 AUDIO
    TITLE "0:"
    INDEX 01 00:19:34
  TRACK 24 AUDIO
    TITLE "9:cjc034_02239"
    INDEX 01 00:19:36
  TRACK 25 AUDIO
    TITLE "0:"
    INDEX 01 00:20:34
  TRACK 26 AUDIO
    TITLE "10:cjc034_02240"
    INDEX 01 00:21:17
  TRACK 27 AUDIO
    TITLE "0:"
    INDEX 01 00:22:23
  TRACK 28 AUDIO
    TITLE "9:cjc034_02241"
    INDEX 01 00:22:27
  TRACK 29 AUDIO
    TITLE "0:"
    INDEX 01 00:23:65
  TRACK 30 AUDIO
    TITLE "10:cjc034_02242"
    INDEX 01 00:24:49
  TRACK 31 AUDIO
    TITLE "0:"
    INDEX 01 00:25:64
  TRACK 32 AUDIO
    TITLE "9:cjc034_02243"
    INDEX 01 00:25:66
  TRACK 33 AUDIO
    TITLE "0:"
    INDEX 01 00:26:73
  TRACK 34 AUDIO
    TITLE "10:cjc034_02244"
    INDEX 01 00:27:59
  TRACK 35 AUDIO
    TITLE "0:"
    INDEX 01 00:29:05
  TRACK 36 AUDIO
    TITLE "9:cjc034_02245"
    INDEX 01 00:29:09
  TRACK 37 AUDIO
    TITLE "0:"
    INDEX 01 00:30:34
  TRACK 38 AUDIO
    TITLE "10:cjc034_02246"
    INDEX 01 00:31:16
  TRACK 39 AUDIO
    TITLE "0:"
    INDEX 01 00:32:37
  TRACK 40 AUDIO
    TITLE "9:cjc034_02247"
    INDEX 01 00:32:39
  TRACK 41 AUDIO
    TITLE "0:"
    INDEX 01 00:33:66
  TRACK 42 AUDIO
    TITLE "11:cjc034_02248"
    INDEX 01 00:35:35
  TRACK 43 AUDIO
    TITLE "0:"
    INDEX 01 00:41:00
  TRACK 44 AUDIO
    TITLE "10:cjc034_02249"
    INDEX 01 00:42:02
  TRACK 45 AUDIO
    TITLE "0:"
    INDEX 01 00:43:11
  TRACK 46 AUDIO
    TITLE "9:cjc034_02250"
    INDEX 01 00:43:13
  TRACK 47 AUDIO
    TITLE "0:"
    INDEX 01 00:44:52
  TRACK 48 AUDIO
    TITLE "10:cjc034_02251"
    INDEX 01 00:45:30
  TRACK 49 AUDIO
    TITLE "0:"
    INDEX 01 00:46:64
  TRACK 50 AUDIO
    TITLE "9:cjc034_02252"
    INDEX 01 00:46:66
  TRACK 51 AUDIO
    TITLE "0:"
    INDEX 01 00:48:20
  TRACK 52 AUDIO
    TITLE "10:cjc034_02253"
    INDEX 01 00:49:02
  TRACK 53 AUDIO
    TITLE "0:"
    INDEX 01 00:50:09
  TRACK 54 AUDIO
    TITLE "9:cjc034_02254"
    INDEX 01 00:50:13
  TRACK 55 AUDIO
    TITLE "0:"
    INDEX 01 00:51:71
  TRACK 56 AUDIO
    TITLE "10:cjc034_02255"
    INDEX 01 00:52:51
  TRACK 57 AUDIO
    TITLE "0:"
    INDEX 01 00:53:68
  TRACK 58 AUDIO
    TITLE "9:cjc034_02256"
    INDEX 01 00:53:70
  TRACK 59 AUDIO
    TITLE "0:"
    INDEX 01 00:55:08
  TRACK 60 AUDIO
    TITLE "10:cjc034_02257"
    INDEX 01 00:55:65
  TRACK 61 AUDIO
    TITLE "0:"
    INDEX 01 00:58:54
  TRACK 62 AUDIO
    TITLE "9:cjc034_02258"
    INDEX 01 00:58:58
  TRACK 63 AUDIO
    TITLE "0:"
    INDEX 01 00:59:73
